# xmcd
#
# Track frame offsets:
#	150
#	15082
#	31032
#	47200
#	68330
#	84887
#	103605
#	122437
#	146932
#	163172
#	178155
#	192180
#	210967
#	231397
#	249350
#	268765
#	290922
#	311460
#	333857
#
# Disc length: 4682 seconds
#
# Revision: 2
# Processed by: cddbd v1.5.2PL0 Copyright (c) Steve Scherf et al.
# Submitted via: audiograbber 1.83.01
#
DISCID=00124813
DTITLE=Various Artist - Late Night Moods 3 [Disc 1]
DYEAR=2006
DGENRE=Jazz
TTITLE0=Tina Cousins - Wonderful Life (Ballad Version)
TTITLE1=The Source featuring Candi Staton - You Got The Love (Now Voyager Mix)
TTITLE2=Corinne Bailey Rae - Put Your Records On
TTITLE3=Joss Stone - Right To Be Wrong
TTITLE4=Missy Higgins - Unbroken
TTITLE5=Delta Goodrem - Lost Without You (Album Version)
TTITLE6=Clare Bowditch and The Feeding Set - I Thought You Were God (Edit)
TTITLE7=Belinda Carlisle - Summer Rain
TTITLE8=KT Tunstall - Under The Weather
TTITLE9=LeAnn Rimes - But I Do Love You
TTITLE10=Michelle Branch - Desperately
TTITLE11=Charlie Hunter featuring Norah Jones - More Than This
TTITLE12=Billie Myers - Kiss The Rain
TTITLE13=Sugababes - Stronger
TTITLE14=Paula Abdul - Rush, Rush
TTITLE15=Annie Lennox - Why
TTITLE16=Kate Ceberano - Time To Think
TTITLE17=k.d. lang - Hallelujah
TTITLE18=Britney Spears - Everytime
EXTD=YEAR: 2006
EXTT0=
EXTT1=
EXTT2=
EXTT3=
EXTT4=
EXTT5=
EXTT6=
EXTT7=
EXTT8=
EXTT9=
EXTT10=
EXTT11=
EXTT12=
EXTT13=
EXTT14=
EXTT15=
EXTT16=
EXTT17=
EXTT18=
PLAYORDER=
